<svg xmlns="http://www.w3.org/2000/svg" width="1000" height="138.727" viewBox="0 0 1000 138.727"><g fill="#f0b333"><path d="M58.815 61.384C31.263 54.54 20.047 50.54 20.047 37.77c0-13.782 13.601-18.661 26.323-18.661 5.337 0 10.843.169 15.758 2.096a36.889 36.889 0 0 1 14.071 9.228c.29.241.578.506.843.76a9.313 9.313 0 0 0 1.675 1.373 8.433 8.433 0 0 0 10.433-2.41 9.156 9.156 0 0 0 2.108-4.337 9.06 9.06 0 0 0-.373-4.819c-2.241-6.59-9.638-12.95-19.276-16.625A71.838 71.838 0 0 0 46.37.039c-20.384 0-34.66 7.855-42.406 23.348C.71 30.06-.723 45.217 5.18 55.083c4 6.77 11.084 12.216 21.083 16.18a130.28 130.28 0 0 0 23.649 6.879c12.288 2.614 25.335 6.662 28.83 17.07a15.999 15.999 0 0 1-.435 10.916c-3.096 7.89-11.095 11.12-17.24 12.432a61.947 61.947 0 0 1-21.31.314c-10.928-1.808-18.506-5.494-23.349-11.41l-.325-.445a11.915 11.915 0 0 0-3.614-3.614 7.855 7.855 0 0 0-8.94 1.337 10.011 10.011 0 0 0-3.107 10.505c2.216 6.132 7.228 11.47 14.721 15.349a67.055 67.055 0 0 0 21.686 7.132 89.74 89.74 0 0 0 13.336 1c13.927 0 41.575-6.47 46.503-30.974 3.325-16.156-.7-37.407-37.853-46.37ZM143.592 2.87a9.83 9.83 0 0 0-9.638 9.638v113.835a9.794 9.794 0 0 0 13.433 9 9.638 9.638 0 0 0 3.168-2.097 9.855 9.855 0 0 0 2.108-3.168 9.638 9.638 0 0 0 .711-3.735V12.556a9.71 9.71 0 0 0-9.698-9.638M314.314 2.942a10.228 10.228 0 0 0-11.108 3.615l-47.936 81.09L207.081 6.4a9.782 9.782 0 0 0-10.843-3.434 9.903 9.903 0 0 0-4.818 3.542 9.794 9.794 0 0 0-1.868 5.699V126.39a9.698 9.698 0 0 0 19.396 0V47.638l38.552 64.405a9.638 9.638 0 0 0 3.493 2.855 9.794 9.794 0 0 0 4.398 1 9.385 9.385 0 0 0 7.843-4l38.214-64.248v78.741a10.047 10.047 0 0 0 9.866 9.638 9.71 9.71 0 0 0 9.698-9.698V12.207a9.83 9.83 0 0 0-6.577-9.325M481.073 2.942a10.216 10.216 0 0 0-11.096 3.615l-47.96 81.09L373.827 6.4a9.77 9.77 0 0 0-17.6 5.807V126.39a9.807 9.807 0 0 0 9.637 9.698 9.71 9.71 0 0 0 9.638-9.698V47.638l38.552 64.405a9.855 9.855 0 0 0 7.89 3.855 9.505 9.505 0 0 0 7.855-4l38.227-64.188v78.681a10.023 10.023 0 0 0 9.854 9.698 9.71 9.71 0 0 0 9.638-9.698V12.207a9.83 9.83 0 0 0-6.578-9.325M817.35 2.714a9.385 9.385 0 0 0-3.724.698 9.505 9.505 0 0 0-3.168 2.096 9.77 9.77 0 0 0-2.084 3.157 9.638 9.638 0 0 0-.711 3.722v87.247l-77.801-93.27a9.638 9.638 0 0 0-17.096 6.204v113.835a9.692 9.692 0 1 0 19.385 0v-87.09l77.693 93.44c2.662 3.288 7.517 3.698 11.095 2.674 3.855-1.12 6.144-4.41 6.144-8.82V12.388a9.722 9.722 0 0 0-2.855-6.854 9.638 9.638 0 0 0-6.879-2.82zM681.877 96.417a73.489 73.489 0 0 1-12.493-17.83 99.607 99.607 0 0 0 11.457-15.119 6.457 6.457 0 0 0 1.096-3.397 6.289 6.289 0 0 0-.879-3.446 8.433 8.433 0 0 0-6.855-4h-.169a7.012 7.012 0 0 0-6.276 3.494c-14.096 22.926-36.89 36.684-62.538 37.889-25.3 1.205-51.092-12.047-67.14-34.275a7.758 7.758 0 0 0-7.01-3.24 8.433 8.433 0 0 0-3.916 1.204 8.144 8.144 0 0 0-2.82 2.976 5.951 5.951 0 0 0 .748 6.361 104.876 104.876 0 0 0 6.493 8.168 7.228 7.228 0 0 0-1.747 2.145c-2.012 3.47-4.349 6.818-6.662 10.083a113.245 113.245 0 0 0-6.674 10.24c-2.41 4.072-.253 8 3.072 9.819a6.975 6.975 0 0 0 2.699.964 7.228 7.228 0 0 0 2.867-.145 7.228 7.228 0 0 0 4.481-3.385c2.012-3.47 4.361-6.831 6.675-10.084 2.011-2.891 4.096-5.867 6.023-9.06a96.09 96.09 0 0 0 27.817 16.662 185.842 185.842 0 0 0-6.565 24.817c-.988 4.711 2.505 8 6.3 8.77a7 7 0 0 0 1.326.17 6.59 6.59 0 0 0 7.06-5.337l.47-2.265a147.88 147.88 0 0 1 5.734-21.902 94.114 94.114 0 0 0 18.914 2.048 85.8 85.8 0 0 0 11.662-.783c.662 6.987 2.879 14.203 7.096 23.179a6.53 6.53 0 0 0 1.518 2.18 6.734 6.734 0 0 0 2.252 1.398 6.53 6.53 0 0 0 2.627.373 6.313 6.313 0 0 0 2.566-.686 7.433 7.433 0 0 0 2.626-1.663 7.578 7.578 0 0 0 2.29-5.626 7.47 7.47 0 0 0-.712-3.024c-3.481-7.433-5.204-13.71-5.337-19.661a90.788 90.788 0 0 0 28.215-15.24 87.066 87.066 0 0 0 13.023 17.336 7.41 7.41 0 0 0 10.277.169 7.397 7.397 0 0 0 .518-10.277zM921.257 61.384c-27.552-6.783-38.768-10.843-38.768-23.54 0-13.783 13.601-18.662 26.323-18.662 5.277 0 10.843.169 15.77 2.084a37.106 37.106 0 0 1 14.12 9.132c.289.241.566.53.843.783a9.24 9.24 0 0 0 1.662 1.325 8.337 8.337 0 0 0 10.373-2.349 9.385 9.385 0 0 0 2.108-4.337 9.24 9.24 0 0 0-.361-4.819c-2.24-6.578-9.638-12.938-19.276-16.613a71.549 71.549 0 0 0-25.3-4.385c-20.383 0-34.66 7.855-42.418 23.348-3.252 6.674-4.698 21.83 1.205 31.696 4 6.759 11.084 12.216 21.083 16.18a129.039 129.039 0 0 0 23.649 6.879c12.276 2.578 25.3 6.662 28.841 17.01a15.999 15.999 0 0 1-.494 10.975c-3.072 7.891-11.071 11.12-17.24 12.433a61.514 61.514 0 0 1-21.215.313c-10.915-1.807-18.565-5.553-23.336-11.408l-.349-.47a12.047 12.047 0 0 0-3.614-3.614 7.987 7.987 0 0 0-8.951 1.337 10.047 10.047 0 0 0-3.108 10.493c2.168 6.132 7.228 11.457 14.673 15.348a66.73 66.73 0 0 0 21.685 7.132 89.981 89.981 0 0 0 13.337 1c13.926 0 41.563-6.47 46.502-30.973 3.24-16.204-.699-37.347-37.864-46.443M984.807 125.042h2.337c2.048 0 4-.097 4-2.53 0-2.072-1.796-2.313-3.362-2.313h-2.988zm-2.29-6.674h5.675c3.614 0 5.252 1.421 5.252 4.3 0 2.88-1.734 3.868-4 4.109l4.326 6.662h-2.41l-4.084-6.482h-2.41v6.422h-2.288zm4.916 18.54a11.011 11.011 0 0 0 11.252-12.89 11.084 11.084 0 0 0-2.915-5.735 11.011 11.011 0 0 0-12.048-2.578 11.144 11.144 0 0 0-5 4.06 11 11 0 0 0-1.879 6.156 10.626 10.626 0 0 0 6.458 10.12 10.843 10.843 0 0 0 4.132.867zm0-23.853a12.686 12.686 0 1 1-4.94.951 12.782 12.782 0 0 1 4.94-.951z"/></g></svg>