<svg width="25" height="19" viewBox="0 0 25 19" fill="none" xmlns="http://www.w3.org/2000/svg">
<path fill-rule="evenodd" clip-rule="evenodd" d="M5.85136 0.146447C6.04662 -0.0488152 6.36321 -0.0488144 6.55847 0.146448L11.8967 5.48465C12.0919 5.67991 12.4085 5.67991 12.6038 5.48465L17.942 0.146446C18.1372 -0.0488159 18.4538 -0.0488152 18.6491 0.146447L24.354 5.85136C24.5493 6.04662 24.5493 6.36321 24.354 6.55847L18.6622 12.2502L18.2955 12.6169L12.6038 18.3087C12.4085 18.504 12.0919 18.504 11.8967 18.3087L6.20491 12.6169L5.83821 12.2502L0.146446 6.55847C-0.0488157 6.36321 -0.0488154 6.04662 0.146447 5.85136L5.85136 0.146447Z" fill="#363636"/>
</svg>
