<svg width="26" height="26" viewBox="0 0 26 26" fill="none" xmlns="http://www.w3.org/2000/svg">
<path fill-rule="evenodd" clip-rule="evenodd" d="M6.14425 4.85355C6.73004 4.26777 7.67979 4.26777 8.26558 4.85355L12.1896 8.77755C12.7754 9.36333 13.7251 9.36333 14.3109 8.77755L18.2349 4.85355C18.8207 4.26777 19.7704 4.26777 20.3562 4.85355L24.6469 9.14425C25.2327 9.73004 25.2327 10.6798 24.6469 11.2656L19.6622 16.2502L19.2955 16.6169L14.3109 21.6016C13.7251 22.1874 12.7754 22.1874 12.1896 21.6016L7.20492 16.6169L6.83821 16.2502L1.85355 11.2656C1.26777 10.6798 1.26777 9.73004 1.85355 9.14425L6.14425 4.85355Z" fill="#363636"/>
</svg>
